<svg width="180" height="150" viewBox="0 0 180 150" fill="none" xmlns="http://www.w3.org/2000/svg">
<path d="M91.384 96.3341C86.3958 94.3388 91.384 82.5771 91.384 82.5771L97.7712 81.5944C97.7712 81.5944 96.2973 91.4209 97.7712 91.9122C99.2452 92.4035 116.706 90.4383 120.259 94.3688C123.811 98.2994 124.794 126.796 124.794 126.796H118.898C118.898 126.796 117.424 99.7734 115.459 97.8081C113.494 95.8428 96.2972 98.2994 91.384 96.3341Z" fill="#3F4E64"/>
<path d="M77.627 96.3341C72.6388 94.3388 77.627 82.5771 77.627 82.5771L84.0142 81.5944C84.0142 81.5944 82.5403 91.4209 84.0142 91.9122C85.4881 92.4035 102.949 90.4383 106.502 94.3688C110.054 98.2994 112.398 127.288 112.398 127.288H106.502C106.502 127.288 103.667 99.7734 101.702 97.8081C99.7365 95.8428 82.5402 98.2994 77.627 96.3341Z" fill="#3F4E64"/>
<path d="M57.5566 94.3688C85.0644 86.7626 101.303 85.1473 130.438 82.8227C127.685 57.9214 127.432 42.5883 127.905 22.0988L56.6549 20.3882C55.6215 46.0719 56.0076 64.0185 57.3233 89.8787C57.3981 91.3489 57.4759 92.8446 57.5566 94.3688Z" fill="#FFF5E9"/>
<path d="M128.307 7.55924L57.5566 2C57.1828 8.6231 56.884 14.6957 56.6549 20.3882L127.905 22.0988C128.01 17.5588 128.15 12.7657 128.307 7.55924Z" fill="#FFF5E9"/>
<path d="M57.5566 2L47.9669 7.55924C46.6806 37.9561 45.8273 54.9979 42 85.3885L43.9179 85.2136L44.3441 87.5267L46.2621 87.0991V88.5958H47.9669V89.6649H49.4586V90.734L52.0159 89.2372C52.8683 89.8787 52.0159 92.4445 52.0159 92.4445L57.3233 89.8787C56.0076 64.0185 55.6215 46.0719 56.6549 20.3882C56.884 14.6957 57.1828 8.6231 57.5566 2Z" fill="#FFF5E9"/>
<path d="M57.5566 2L47.9669 7.55924C46.6806 37.9561 45.8273 54.9979 42 85.3885L43.9179 85.2136M57.5566 2L128.307 7.55924C128.15 12.7657 128.01 17.5588 127.905 22.0988M57.5566 2C57.1828 8.6231 56.884 14.6957 56.6549 20.3882M48.3931 45.6186C46.296 71.307 45.2302 83.5265 44.3441 85.1747L43.9179 85.2136M43.9179 85.2136L44.3441 87.5267L46.2621 87.0991M46.2621 87.0991C48.498 75.8775 50.8862 39.1982 51.3351 17.231M46.2621 87.0991V88.5958H47.9669M47.9669 88.5958V89.6649H49.4586M47.9669 88.5958C50.5283 77.2363 52.1114 46.4174 53.3004 20.3882M49.4586 89.6649V90.734M49.4586 89.6649C52.7877 71.8555 53.301 60.2164 54.36 39.6317M49.4586 90.734C49.4586 90.734 51.0172 89.8217 52.0159 89.2372M49.4586 90.734L52.0159 89.2372M52.0159 89.2372C52.8683 89.8787 52.0159 92.4445 52.0159 92.4445L57.3233 89.8787M52.0159 89.2372C54.4542 77.3464 54.0155 61.56 55.2657 49.1671M57.3233 89.8787C57.3981 91.3489 57.4759 92.8446 57.5566 94.3688C85.0644 86.7626 101.303 85.1473 130.438 82.8227C127.685 57.9214 127.432 42.5883 127.905 22.0988M57.3233 89.8787C56.0076 64.0185 55.6215 46.0719 56.6549 20.3882M127.905 22.0988L56.6549 20.3882" stroke="#3F4E64" stroke-linecap="round"/>
<path d="M128.307 7.55924L57.5566 2C57.1828 8.6231 56.884 14.6957 56.6549 20.3882L127.905 22.0988C128.01 17.5588 128.15 12.7657 128.307 7.55924Z" fill="#3F4E64"/>
<path d="M57.5566 2L47.9669 7.55924C46.6806 37.9561 45.8273 54.9979 42 85.3885L43.9179 85.2136M57.5566 2L128.307 7.55924C128.15 12.7657 128.01 17.5588 127.905 22.0988M57.5566 2C57.1828 8.6231 56.884 14.6957 56.6549 20.3882M48.3931 45.6186C46.296 71.307 45.2302 83.5265 44.3441 85.1747L43.9179 85.2136M43.9179 85.2136L44.3441 87.5267L46.2621 87.0991M46.2621 87.0991C48.498 75.8775 50.8862 39.1982 51.3351 17.231M46.2621 87.0991V88.5958H47.9669M47.9669 88.5958V89.6649H49.4586M47.9669 88.5958C50.5283 77.2363 52.1114 46.4174 53.3004 20.3882M49.4586 89.6649V90.734C49.4586 90.734 51.0172 89.8217 52.0159 89.2372M49.4586 89.6649C52.7877 71.8555 53.301 60.2164 54.36 39.6317M52.0159 89.2372C52.8683 89.8787 52.0159 92.4445 52.0159 92.4445L57.3233 89.8787M52.0159 89.2372C54.4542 77.3464 54.0155 61.56 55.2657 49.1671M57.3233 89.8787C57.3981 91.3489 57.4759 92.8446 57.5566 94.3688C85.0644 86.7626 101.303 85.1473 130.438 82.8227C127.685 57.9214 127.432 42.5883 127.905 22.0988M57.3233 89.8787C56.0076 64.0185 55.6215 46.0719 56.6549 20.3882M127.905 22.0988L56.6549 20.3882" stroke="#3F4E64" stroke-linecap="round"/>
<path d="M107.716 56.4478C109.911 55.7161 112.837 57.1794 111.374 60.8375" stroke="#3F4E64" stroke-linecap="round"/>
<path d="M78.0854 56.2576C76.1039 55.5552 73.4619 56.9599 74.7829 60.4717" stroke="#3F4E64" stroke-linecap="round"/>
<path d="M85.8008 28.0605C86.3593 28.0233 86.8407 28.0731 87.2578 28.1924L87.4326 28.248C88.9766 28.7854 89.8508 30.4494 90.3047 33.1318C90.7534 35.7832 90.7549 39.2048 90.7549 42.9258C90.7549 46.9917 90.7524 50.6097 90.1719 53.2891C89.8827 54.6237 89.4587 55.6767 88.8584 56.4238C88.3076 57.1093 87.5925 57.5572 86.6319 57.7207L86.4366 57.75C86.2264 57.7765 86.0037 57.79 85.7676 57.79L85.5362 57.7852C84.4009 57.74 83.5749 57.3599 82.9502 56.7305C82.2684 56.0435 81.7845 55.0169 81.4522 53.6699C80.7843 50.9624 80.7803 47.1931 80.7803 42.9258C80.7803 38.6583 80.7839 34.9819 81.4512 32.3213C81.7827 30.9997 82.2672 29.9799 82.9541 29.2725C83.5873 28.6204 84.4246 28.2004 85.5684 28.0811L85.8008 28.0605Z" stroke="#3F4E64"/>
<path d="M101.896 28.0605C102.455 28.0233 102.936 28.0731 103.353 28.1924L103.528 28.248C105.072 28.7854 105.946 30.4494 106.4 33.1318C106.849 35.7832 106.851 39.2048 106.851 42.9258C106.851 46.9917 106.848 50.6097 106.268 53.2891C105.978 54.6237 105.554 55.6767 104.954 56.4238C104.403 57.1093 103.688 57.5572 102.727 57.7207L102.532 57.75C102.322 57.7765 102.099 57.79 101.863 57.79L101.632 57.7852C100.497 57.74 99.6706 57.3599 99.0458 56.7305C98.364 56.0435 97.8801 55.0169 97.5478 53.6699C96.8799 50.9624 96.8759 47.1931 96.8759 42.9258C96.8759 38.6583 96.8796 34.9819 97.5468 32.3213C97.8783 30.9997 98.3628 29.9799 99.0497 29.2725C99.6829 28.6204 100.52 28.2004 101.664 28.0811L101.896 28.0605Z" stroke="#3F4E64"/>
<path d="M90.7564 42.6996C90.7564 35.2869 90.7564 28.8212 87.0983 27.5488L85.2693 36.8467L88.9273 39.7731L85.2693 41.968C84.2395 48.5834 84.5712 52.0512 86.0008 58.0193C90.7564 57.4193 90.7564 50.7897 90.7564 42.6996Z" fill="#3F4E64"/>
<path d="M106.852 42.6996C106.852 35.2869 106.852 28.8212 103.194 27.5488L101.365 36.8467L105.023 39.7731L101.365 41.968C100.335 48.5834 100.667 52.0512 102.096 58.0193C106.852 57.4193 106.852 50.7897 106.852 42.6996Z" fill="#3F4E64"/>
<path d="M92.0062 55.6987C92.0062 55.6987 97.213 51.6692 98.4145 56.1533C99.5575 60.4191 92.416 59.3608 92.416 59.3608" stroke="#3F4E64"/>
<path d="M100.595 60.4717C103.18 58.4343 104.471 56.9155 108.082 61.2033C110.642 64.4956 109.128 67.5475 106.619 69.9854M100.595 60.4717L106.619 69.9854M100.595 60.4717C99.6539 61.2135 98.5479 61.9818 97.1075 62.4904M106.619 69.9854C105.072 71.488 102.949 72.7082 100.595 73.5422M97.1075 62.4904C96.0912 62.8493 94.9085 63.079 93.4998 63.079C93.2328 63.079 92.9722 63.071 92.7178 63.0558M97.1075 62.4904L100.595 73.5422M100.595 73.5422C98.342 74.3404 95.8765 74.7849 93.4998 74.7849C93.2401 74.7849 92.9793 74.7811 92.7178 74.7735M92.7178 63.0558V74.7735M92.7178 63.0558C91.0015 62.9528 89.5665 62.5177 88.3281 61.9552M92.7178 74.7735C87.6372 74.6262 82.2928 73.0468 79.4403 69.9854M88.3281 61.9552C83.6395 59.8255 81.7691 55.8703 78.1202 61.2033C76.6456 64.89 77.4146 67.8114 79.4403 69.9854M88.3281 61.9552L84.6924 73.275M85.1416 60.1059L79.4403 69.9854" stroke="#3F4E64"/>
<path fill-rule="evenodd" clip-rule="evenodd" d="M130.539 124.958C130.788 122.963 124.542 120.9 124.542 120.9C124.542 120.9 125.034 123.357 124.542 123.933C124.051 124.509 122.661 126.319 120.494 123.933L118.647 121.883C115.424 122.722 115.792 123.49 116.752 125.573C116.587 125.965 116.425 126.349 116.266 126.724C113.428 133.427 111.694 137.521 118.239 143.202C125.772 148.728 133.246 149.567 135.868 143.202C137.89 138.294 137.804 133.732 130.539 130.697C130.108 130.567 129.699 130.449 129.309 130.344C131.158 129.638 130.675 128.752 129.309 127.008C129.309 127.008 130.423 125.884 130.539 124.958Z" fill="#FFF5E9"/>
<path d="M117.624 127.008C117.235 126.468 116.946 125.994 116.752 125.573M116.752 125.573C115.792 123.49 115.424 122.722 118.647 121.883L120.494 123.933C122.661 126.319 124.051 124.509 124.542 123.933C125.034 123.357 124.542 120.9 124.542 120.9C124.542 120.9 130.788 122.963 130.539 124.958C130.423 125.884 129.309 127.008 129.309 127.008M116.752 125.573C116.587 125.965 116.425 126.349 116.266 126.724C113.428 133.427 111.694 137.521 118.239 143.202C125.772 148.728 133.246 149.567 135.868 143.202C137.89 138.294 137.804 133.732 130.539 130.697C130.108 130.567 129.699 130.449 129.309 130.344M121.314 131.722C123.958 129.529 125.956 129.443 129.309 130.344M129.309 130.344C131.158 129.638 130.675 128.752 129.309 127.008M129.309 127.008L127.259 127.828" stroke="#3F4E64" stroke-linecap="round" stroke-linejoin="round"/>
<path fill-rule="evenodd" clip-rule="evenodd" d="M116.781 125.94C117.031 123.946 112.682 122.866 112.682 122.866C112.682 122.866 112.682 123.276 111.768 124.916C110.854 126.555 108.904 127.301 106.737 124.915L104.889 122.866C101.667 123.705 102.035 124.472 102.995 126.555C102.83 126.948 102.668 127.332 102.509 127.707C99.6708 134.409 97.937 138.504 104.482 144.184C112.015 149.711 119.489 150.55 122.111 144.184C124.133 139.276 124.046 134.715 116.781 131.68C116.351 131.55 115.942 131.432 115.552 131.327C117.401 130.621 116.918 129.735 115.552 127.99C115.552 127.99 116.666 126.867 116.781 125.94Z" fill="#FFF5E9"/>
<path d="M103.867 127.99C103.478 127.451 103.189 126.976 102.995 126.555M102.995 126.555C102.035 124.472 101.667 123.705 104.889 122.866L106.737 124.915C108.904 127.301 110.854 126.555 111.768 124.916C112.682 123.276 112.682 122.866 112.682 122.866C112.682 122.866 117.031 123.946 116.781 125.94C116.666 126.867 115.552 127.99 115.552 127.99M102.995 126.555C102.83 126.948 102.668 127.332 102.509 127.707C99.6708 134.409 97.937 138.504 104.482 144.184C112.015 149.711 119.489 150.55 122.111 144.184C124.133 139.276 124.046 134.715 116.781 131.68C116.351 131.55 115.942 131.432 115.552 131.327M107.557 132.705C110.201 130.511 112.199 130.426 115.552 131.327M115.552 131.327C117.401 130.621 116.918 129.735 115.552 127.99M115.552 127.99L113.502 128.81" stroke="#3F4E64" stroke-linecap="round" stroke-linejoin="round"/>
<path d="M50.3525 70.294C50.3525 70.294 51.3352 75.6985 54.7744 78.6465C60.3798 83.4511 76.7306 79.9585 76.7306 79.9585C77.3852 78.2049 77.8755 77.5149 79.229 77.4286C79.6576 77.4013 79.8705 77.645 79.9612 77.9908C81.0211 76.8417 80.945 76.5958 83.1154 75.742C83.1154 75.742 88.2323 71.0685 90.0554 73.3098C90.6222 74.0066 90.93 75.4448 90.93 75.4448C94.9253 75.5011 96.4927 76.4745 94.497 79.9585C96.1626 80.2396 97.1371 83.1144 93.9418 84.7371C95.2889 86.0467 96.4402 88.6725 92.5538 89.7968C88.1355 91.0751 83.6706 90.359 81.7274 88.3914C81.0315 87.6867 80.6151 86.4517 80.2891 85.4585C78.4476 86.616 77.4986 86.81 76.453 83.6128C76.453 83.6128 59.9313 85.4641 55.2657 83.0684C51.3352 81.0501 50.8438 78.3026 50.8438 78.3026L50.3525 70.294Z" fill="#3F4E64"/>
<path d="M79.7842 79.9585C79.7842 79.9585 80.1569 78.7369 79.9612 77.9908M79.9612 77.9908C79.8705 77.645 79.6576 77.4013 79.229 77.4286C77.8755 77.5149 77.3852 78.2049 76.7306 79.9585C76.7306 79.9585 60.3798 83.4511 54.7744 78.6465C51.3352 75.6985 50.3525 70.294 50.3525 70.294L50.8438 78.3026C50.8438 78.3026 51.3352 81.0501 55.2657 83.0684C59.9313 85.4641 76.453 83.6128 76.453 83.6128C77.4986 86.81 78.4476 86.616 80.2891 85.4585M79.9612 77.9908C81.0211 76.8417 80.945 76.5958 83.1154 75.742C83.1154 75.742 88.2323 71.0685 90.0554 73.3098C90.6222 74.0066 90.93 75.4448 90.93 75.4448M88.6674 75.461C89.4891 75.4442 90.2452 75.4351 90.93 75.4448M94.497 79.9585H90.0554M94.497 79.9585C96.1626 80.2396 97.1371 83.1144 93.9418 84.7371M94.497 79.9585C96.4927 76.4745 94.9253 75.5011 90.93 75.4448M93.9418 84.7371L90.0554 85.0182M93.9418 84.7371C95.2889 86.0467 96.4402 88.6725 92.5538 89.7968C88.1355 91.0751 83.6706 90.359 81.7274 88.3914C81.0315 87.6867 80.6151 86.4517 80.2891 85.4585M79.7842 83.6128C79.7842 83.6128 79.9548 84.4403 80.2891 85.4585" stroke="#3F4E64" stroke-linecap="round"/>
<path fill-rule="evenodd" clip-rule="evenodd" d="M79.229 77.4286C77.8755 77.5149 77.3852 78.2049 76.7306 79.9585L76.453 83.6127C77.4986 86.81 78.4476 86.616 80.2891 85.4585C80.6151 86.4517 81.0315 87.6867 81.7274 88.3914C83.6706 90.359 88.1355 91.0751 92.5538 89.7968C96.4402 88.6725 95.2889 86.0467 93.9418 84.7371C97.1371 83.1144 96.1626 80.2396 94.497 79.9585C96.4927 76.4745 94.9253 75.5011 90.93 75.4448C90.93 75.4448 90.6222 74.0066 90.0554 73.3098C88.2323 71.0685 83.1154 75.742 83.1154 75.742C81.3119 76.4514 81.0595 76.7412 80.4177 77.4781C80.2871 77.6281 80.1404 77.7965 79.9612 77.9908C79.8705 77.645 79.6576 77.4013 79.229 77.4286Z" fill="#FFF5E9"/>
<path d="M76.7306 79.9585C77.3852 78.2049 77.8755 77.5149 79.229 77.4286C79.6576 77.4013 79.8705 77.645 79.9612 77.9908M76.7306 79.9585C76.7306 79.9585 59.2041 84.5527 54.7744 78.6465C51.8265 74.7159 50.3525 70.0687 50.3525 70.0687V77.6638C50.3525 77.6638 51.3352 81.0501 55.2657 83.0684C59.9313 85.4641 76.453 83.6127 76.453 83.6127M76.7306 79.9585L76.453 83.6127M79.7842 79.9585C79.7842 79.9585 80.1569 78.7369 79.9612 77.9908M79.9612 77.9908C80.1404 77.7965 80.2871 77.6281 80.4177 77.4781C81.0595 76.7412 81.3119 76.4514 83.1154 75.742C83.1154 75.742 88.2323 71.0685 90.0554 73.3098C90.6222 74.0066 90.93 75.4448 90.93 75.4448M88.6674 75.461C89.4891 75.4442 90.2452 75.4351 90.93 75.4448M94.497 79.9585H90.0554M94.497 79.9585C96.1626 80.2396 97.1371 83.1144 93.9418 84.7371M94.497 79.9585C96.4927 76.4745 94.9253 75.5011 90.93 75.4448M93.9418 84.7371L90.0554 85.0182M93.9418 84.7371C95.2889 86.0467 96.4402 88.6725 92.5538 89.7968C88.1355 91.0751 83.6706 90.359 81.7274 88.3914C81.0315 87.6867 80.6151 86.4517 80.2891 85.4585M79.7842 83.6127C79.7842 83.6127 79.9548 84.4403 80.2891 85.4585M80.2891 85.4585C78.4476 86.616 77.4986 86.81 76.453 83.6127" stroke="#3F4E64" stroke-linecap="round"/>
<path d="M128.473 77.7322C121.103 83.0272 109.354 79.5855 109.354 79.5855C108.736 77.9339 108.274 77.2841 106.997 77.2028C106.592 77.177 106.392 77.4066 106.306 77.7322C105.306 76.65 105.378 76.4184 103.33 75.6143C103.33 75.6143 98.5033 71.2126 96.7835 73.3235C96.2488 73.9798 95.9584 75.3343 95.9584 75.3343C92.1893 75.3874 90.7107 76.3041 92.5934 79.5855C91.0221 79.8502 90.1028 82.5578 93.1172 84.0861C91.8464 85.3196 90.7603 87.7925 94.4265 88.8515C98.5946 90.0554 102.807 89.381 104.64 87.5278C105.296 86.8641 105.689 85.701 105.997 84.7655C107.734 85.8557 108.629 86.0384 109.615 83.0272C109.615 83.0272 128.959 86.8921 131.421 78.6465C132.468 75.1392 129.947 73.7333 129.947 73.7333C129.947 73.7333 129.896 76.7098 128.473 77.7322Z" fill="#3F4E64"/>
<path d="M106.473 79.5855C106.473 79.5855 106.121 78.435 106.306 77.7322M106.306 77.7322C106.392 77.4066 106.592 77.177 106.997 77.2028C108.274 77.2841 108.736 77.9339 109.354 79.5855C109.354 79.5855 121.103 83.0272 128.473 77.7322C129.896 76.7098 129.947 73.7333 129.947 73.7333C129.947 73.7333 132.468 75.1392 131.421 78.6465C128.959 86.8921 109.615 83.0272 109.615 83.0272C108.629 86.0384 107.734 85.8557 105.997 84.7655M106.306 77.7322C105.306 76.65 105.378 76.4184 103.33 75.6143C103.33 75.6143 98.5033 71.2126 96.7835 73.3235C96.2488 73.9798 95.9584 75.3343 95.9584 75.3343M98.0928 75.3496C97.3177 75.3338 96.6044 75.3253 95.9584 75.3343M92.5934 79.5855H96.7835M92.5934 79.5855C91.0221 79.8502 90.1028 82.5578 93.1172 84.0861M92.5934 79.5855C90.7107 76.3041 92.1893 75.3874 95.9584 75.3343M93.1172 84.0861L96.7835 84.3509M93.1172 84.0861C91.8464 85.3196 90.7603 87.7925 94.4265 88.8515C98.5946 90.0554 102.807 89.381 104.64 87.5278C105.296 86.8641 105.689 85.701 105.997 84.7655M106.473 83.0272C106.473 83.0272 106.312 83.8065 105.997 84.7655" stroke="#3F4E64" stroke-linecap="round"/>
<path fill-rule="evenodd" clip-rule="evenodd" d="M106.997 77.2028C108.273 77.2841 108.736 77.9339 109.353 79.5855L109.615 83.0272C108.629 86.0384 107.734 85.8557 105.997 84.7655C105.689 85.701 105.296 86.8641 104.64 87.5278C102.807 89.381 98.5945 90.0554 94.4264 88.8515C90.7601 87.7925 91.8462 85.3196 93.117 84.0861C90.1026 82.5578 91.022 79.8502 92.5933 79.5855C90.7106 76.3041 92.1892 75.3874 95.9583 75.3343C95.9583 75.3343 96.2486 73.9798 96.7833 73.3235C98.5031 71.2126 103.33 75.6143 103.33 75.6143C105.032 76.2824 105.27 76.5553 105.875 77.2494C105.998 77.3906 106.137 77.5493 106.306 77.7322C106.391 77.4066 106.592 77.177 106.997 77.2028Z" fill="#FFF5E9"/>
<path d="M109.353 79.5855C109.353 79.5855 121.103 83.0272 128.473 77.7322C129.896 76.7098 129.947 73.7333 129.947 73.7333C129.947 73.7333 132.468 75.1392 131.421 78.6465C128.959 86.8921 109.615 83.0272 109.615 83.0272M109.353 79.5855C108.736 77.9339 108.273 77.2841 106.997 77.2028C106.592 77.177 106.391 77.4066 106.306 77.7322M109.353 79.5855L109.615 83.0272M106.473 79.5855C106.473 79.5855 106.121 78.435 106.306 77.7322M106.306 77.7322C106.137 77.5493 105.998 77.3906 105.875 77.2494C105.27 76.5553 105.032 76.2824 103.33 75.6143C103.33 75.6143 98.5031 71.2126 96.7833 73.3235C96.2486 73.9798 95.9583 75.3343 95.9583 75.3343M98.0927 75.3496C97.3175 75.3338 96.6043 75.3253 95.9583 75.3343M92.5933 79.5855H96.7833M92.5933 79.5855C91.022 79.8502 90.1026 82.5578 93.117 84.0861M92.5933 79.5855C90.7106 76.3041 92.1892 75.3874 95.9583 75.3343M93.117 84.0861L96.7833 84.3509M93.117 84.0861C91.8462 85.3196 90.7601 87.7925 94.4264 88.8515C98.5945 90.0554 102.807 89.381 104.64 87.5278C105.296 86.8641 105.689 85.701 105.997 84.7655M106.473 83.0272C106.473 83.0272 106.312 83.8065 105.997 84.7655M105.997 84.7655C107.734 85.8557 108.629 86.0384 109.615 83.0272" stroke="#3F4E64" stroke-linecap="round"/>
</svg>
